<svg width="24" height="24" viewBox="0 0 24 24" fill="none" xmlns="http://www.w3.org/2000/svg">
<path d="M21 9C21 8.52405 21 7.17617 21 5.9997C21 4.89512 20.1046 4 19 4H5C3.89543 4 3.00001 4.89543 3.00001 6V19C3.00001 20.1046 3.89544 21 5.00001 21H19.5C20.3285 21 21 20.3284 21 19.5L21 19M7 2V5M17 2V5M3 8H21" stroke="#687176" stroke-width="2" stroke-linecap="round" stroke-linejoin="round"></path>
<path d="M11 14H21M21 14L18 11M21 14L18 17M6.5 13.5H7.5V14.5H6.5V13.5Z" stroke="#687176" stroke-width="2" stroke-linecap="round" stroke-linejoin="round"></path>
</svg>