<svg width="24" height="24" viewBox="0 0 24 24" fill="none" xmlns="http://www.w3.org/2000/svg">
<path d="M2.97064 10.5184C3.21866 7.95548 5.37251 6 7.94739 6H19C20.6569 6 22 7.34315 22 9V16.5C22 18.1569 20.6569 19.5 19 19.5H5.40579C3.63474 19.5 2.24914 17.9738 2.41973 16.211L2.97064 10.5184Z" stroke="#687176" stroke-width="2"></path>
<path d="M6.28829 12.6689V11.5H5.15222L5 13.0983L6.28829 12.6689Z" fill="#687176" stroke="#687176" stroke-width="3"></path>
<path d="M17.5 10.25H19.75C20.1642 10.25 20.5 10.5858 20.5 11V13.25C20.5 13.6642 20.1642 14 19.75 14H17.5C17.0858 14 16.75 13.6642 16.75 13.25V11C16.75 10.5858 17.0858 10.25 17.5 10.25Z" fill="#687176"></path>
<path d="M11.5 10.25H13.75C14.1642 10.25 14.5 10.5858 14.5 11V13.25C14.5 13.6642 14.1642 14 13.75 14H11.5C11.0858 14 10.75 13.6642 10.75 13.25V11C10.75 10.5858 11.0858 10.25 11.5 10.25Z" fill="#687176"></path>
<path d="M11.3333 8L8 5M8 5L11.3333 2M8 5H18" stroke="#687176" stroke-width="2" stroke-linecap="round" stroke-linejoin="round"></path>
<circle cx="7.5" cy="20" r="2.5" fill="#687176"></circle>
<circle cx="17.5" cy="20" r="2.5" fill="#687176"></circle>
</svg>