<svg width="18" height="18" viewBox="0 0 18 18" fill="none" xmlns="http://www.w3.org/2000/svg">
<path d="M11.7995 1.5C12.0623 1.5 12.2796 1.69685 12.314 1.95225L12.3187 2.02326L12.3187 2.6147C14.451 2.76091 15.7567 4.13916 15.75 6.36434V12.7308C15.75 15.0894 14.284 16.5 11.9277 16.5H6.07219C3.71875 16.5 2.25 15.0654 2.25 12.678V6.36434C2.25 4.13996 3.55989 2.76133 5.68758 2.61476L5.68765 2.02326C5.68765 1.73427 5.92011 1.5 6.20687 1.5C6.46974 1.5 6.68698 1.69685 6.72136 1.95225L6.7261 2.02326L6.726 2.60175H11.28L11.2802 2.02326C11.2802 1.73427 11.5127 1.5 11.7995 1.5ZM14.7113 7.71225H3.288L3.28846 12.678C3.28846 14.4219 4.22187 15.3898 5.90172 15.4505L6.07219 15.4535H11.9277C13.7209 15.4535 14.7115 14.5004 14.7115 12.7308L14.7113 7.71225ZM12.0817 12.102C12.3684 12.102 12.6009 12.3363 12.6009 12.6253C12.6009 12.8902 12.4055 13.1091 12.1521 13.1437L12.0817 13.1485C11.7885 13.1485 11.556 12.9143 11.556 12.6253C11.556 12.3604 11.7514 12.1414 12.0048 12.1068L12.0817 12.102ZM9.00958 12.102C9.29634 12.102 9.52881 12.3363 9.52881 12.6253C9.52881 12.8902 9.33347 13.1091 9.08004 13.1437L9.00958 13.1485C8.71641 13.1485 8.48394 12.9143 8.48394 12.6253C8.48394 12.3604 8.67928 12.1414 8.93271 12.1068L9.00958 12.102ZM5.93109 12.102C6.21786 12.102 6.45032 12.3363 6.45032 12.6253C6.45032 12.8902 6.25499 13.1091 6.00155 13.1437L5.92468 13.1485C5.63792 13.1485 5.40545 12.9143 5.40545 12.6253C5.40545 12.3604 5.60079 12.1414 5.85422 12.1068L5.93109 12.102ZM12.0817 9.39048C12.3684 9.39048 12.6009 9.62475 12.6009 9.91374C12.6009 10.1786 12.4055 10.3976 12.1521 10.4322L12.0817 10.437C11.7885 10.437 11.556 10.2027 11.556 9.91374C11.556 9.64884 11.7514 9.42991 12.0048 9.39526L12.0817 9.39048ZM9.00958 9.39048C9.29634 9.39048 9.52881 9.62475 9.52881 9.91374C9.52881 10.1786 9.33347 10.3976 9.08004 10.4322L9.00958 10.437C8.71641 10.437 8.48394 10.2027 8.48394 9.91374C8.48394 9.64884 8.67928 9.42991 8.93271 9.39526L9.00958 9.39048ZM5.93109 9.39048C6.21786 9.39048 6.45032 9.62475 6.45032 9.91374C6.45032 10.1786 6.25499 10.3976 6.00155 10.4322L5.92468 10.437C5.63792 10.437 5.40545 10.2027 5.40545 9.91374C5.40545 9.64884 5.60079 9.42991 5.85422 9.39526L5.93109 9.39048ZM11.28 3.648H6.726L6.7261 4.31915C6.7261 4.60814 6.49364 4.8424 6.20687 4.8424C5.94401 4.8424 5.72677 4.64555 5.69239 4.39015L5.68765 4.31915L5.68691 3.66391C4.13917 3.79378 3.28846 4.72995 3.28846 6.36434L3.288 6.66525H14.7113L14.7115 6.36274C14.7165 4.72706 13.8701 3.79283 12.3187 3.66374L12.3187 4.31915C12.3187 4.60814 12.0862 4.8424 11.7995 4.8424C11.5366 4.8424 11.3194 4.64555 11.285 4.39015L11.2802 4.31915L11.28 3.648Z" fill="#0E4BC8"/>
</svg>
