<svg width="17" height="17" viewBox="0 0 17 17" fill="none" xmlns="http://www.w3.org/2000/svg">
<path d="M9.91522 1.02618H7.07402V1.50426H6.04797V0.959259C6.04784 0.430344 6.47792 0 7.00658 0H9.98267C10.5113 0 10.9414 0.430344 10.9414 0.959259V1.50426H9.91522V1.02618Z" fill="#FE4B4B"/>
<path d="M3.67821 5.57031H13.3107C13.5747 5.57031 13.7825 5.79547 13.7612 6.05863L12.9559 16.0165C12.911 16.5723 12.4473 17.0005 11.8903 17.0005H5.09881C4.54175 17.0005 4.07808 16.5723 4.0332 16.0163L3.22789 6.05863C3.20649 5.79547 3.41427 5.57031 3.67821 5.57031ZM10.9784 15.9384C10.9891 15.939 10.9999 15.9394 11.0105 15.9394C11.2795 15.9394 11.5053 15.7299 11.5221 15.4578L12.0267 7.283C12.0441 7.00012 11.8289 6.75668 11.5462 6.7393C11.2643 6.72218 11.0199 6.93683 11.0025 7.21983L10.498 15.3947C10.4804 15.6776 10.6956 15.9209 10.9784 15.9384ZM7.97568 15.4263C7.97568 15.7096 8.20538 15.9393 8.48877 15.9393C8.77217 15.9393 9.00187 15.7096 9.00187 15.4263V7.25135C9.00187 6.96796 8.77217 6.73826 8.48877 6.73826C8.20551 6.73826 7.97568 6.96796 7.97568 7.25135V15.4263ZM4.96224 7.28157L5.44407 15.4564C5.46003 15.729 5.68622 15.9393 5.95574 15.9393C5.96586 15.9393 5.9761 15.939 5.98635 15.9385C6.26922 15.9218 6.48504 15.679 6.46831 15.3961L5.98661 7.22113C5.97001 6.93826 5.72799 6.72243 5.44433 6.73917C5.16146 6.75577 4.94564 6.9987 4.96224 7.28157Z" fill="#FE4B4B"/>
<path d="M1.90329 3.98726L2.24025 2.97716C2.3291 2.71088 2.57838 2.53125 2.85918 2.53125H14.1287C14.4093 2.53125 14.6587 2.71088 14.7475 2.97716L15.0844 3.98726C15.1494 4.18207 15.0648 4.38077 14.907 4.47986C14.8427 4.5202 14.7665 4.54445 14.6829 4.54445H2.30484C2.22119 4.54445 2.14492 4.5202 2.08072 4.47973C1.92288 4.38064 1.83831 4.18194 1.90329 3.98726Z" fill="#FE4B4B"/>
</svg>
