<svg width="15" height="15" viewBox="0 0 15 15" fill="none" xmlns="http://www.w3.org/2000/svg">
<path d="M14.1111 5.93344C14.018 5.64695 13.7639 5.44413 13.4644 5.41703L9.38029 5.04625L7.76622 1.26736C7.64705 0.989733 7.37589 0.810547 7.07408 0.810547C6.77227 0.810547 6.50101 0.989733 6.3826 1.26736L4.76852 5.04625L0.683722 5.41703C0.384287 5.44467 0.130728 5.64749 0.0370332 5.93344C-0.056122 6.21992 0.0299089 6.53414 0.256374 6.73276L3.34367 9.43987L2.43338 13.4491C2.36678 13.7439 2.4812 14.0487 2.7258 14.2255C2.85727 14.3211 3.01174 14.3688 3.16675 14.3688C3.29995 14.3688 3.43326 14.3334 3.55232 14.2621L7.07408 12.1564L10.5952 14.2621C10.8535 14.4165 11.1783 14.4024 11.4224 14.2255C11.667 14.0487 11.7814 13.7439 11.7148 13.4491L10.8045 9.43987L13.8918 6.73276C14.1181 6.53414 14.2043 6.22057 14.1111 5.93344Z" fill="#E2E2E2"/>
</svg>
