<svg width="20" height="20" viewBox="0 0 20 20" fill="none" xmlns="http://www.w3.org/2000/svg">
<path d="M16.9512 16.0078C17.2543 16.0078 17.5 16.2486 17.5 16.5457C17.5 16.8181 17.2935 17.0431 17.0257 17.0787L16.9512 17.0837H11.2258C10.9227 17.0837 10.677 16.8428 10.677 16.5457C10.677 16.2734 10.8835 16.0483 11.1514 16.0127L11.2258 16.0078H16.9512ZM11.3827 3.68084C12.4217 2.66238 14.1069 2.66238 15.1459 3.68084L16.2245 4.73816C17.2635 5.75662 17.2635 7.40853 16.2245 8.427L8.11717 16.3742C7.65359 16.8286 7.02506 17.0836 6.36901 17.0836H3.04878C2.74035 17.0836 2.49249 16.8345 2.50017 16.5322L2.58369 13.2482C2.6003 12.6275 2.85939 12.0358 3.30722 11.5968L11.3827 3.68084ZM10.755 5.81616L4.08332 12.3575C3.83438 12.6016 3.69012 12.9311 3.68089 13.2757L3.61121 16.0073L6.36901 16.0077C6.69352 16.0077 7.00559 15.8957 7.2519 15.6934L7.34108 15.6134L14.0458 9.04116L10.755 5.81616ZM14.3698 4.4416C13.7594 3.84329 12.7691 3.84329 12.1588 4.4416L11.5317 5.05533L14.8217 8.28033L15.4484 7.66623C16.0249 7.10117 16.0569 6.20393 15.5445 5.60195L15.4484 5.49892L14.3698 4.4416Z" fill="#666C7C"/>
</svg>
