<svg width="18" height="18" viewBox="0 0 18 18" fill="none" xmlns="http://www.w3.org/2000/svg">
    <path d="M8.446 0.698574C8.78546 0.698574 9.06065 0.973305 9.06065 1.3122C9.06065 1.62286 8.82942 1.8796 8.5294 1.92023L8.446 1.92583H5.38177C3.31527 1.92583 1.97675 3.2944 1.8998 5.4197L1.89629 5.61497V12.4173C1.89629 14.5908 3.16973 16.0204 5.19554 16.1027L5.38177 16.1064H12.6133C14.685 16.1064 16.0194 14.7408 16.0961 12.6128L16.0996 12.4173V9.12166C16.0996 8.78276 16.3748 8.50803 16.7143 8.50803C17.0254 8.50803 17.2826 8.73888 17.3233 9.03839L17.3289 9.12166V12.4173C17.3289 15.2499 15.5316 17.2415 12.805 17.3305L12.6133 17.3337H5.38177C2.61308 17.3337 0.753016 15.4063 0.669897 12.6135L0.666992 12.4173V5.61497C0.666992 2.78515 2.46887 0.790879 5.19041 0.701692L5.38177 0.698574H8.446ZM11.9523 1.41716C12.9553 0.416935 14.5808 0.416935 15.5838 1.41716L16.5814 2.41311C17.5844 3.41451 17.5844 5.03866 16.5814 6.03897L10.4275 12.1826C9.97856 12.6308 9.36979 12.8827 8.73489 12.8827H5.66491C5.31947 12.8827 5.04187 12.5986 5.05045 12.2538L5.1275 9.16095C5.14294 8.54843 5.39354 7.96507 5.82773 7.5316L11.9523 1.41716ZM11.4478 3.65533L6.69698 8.3994C6.4858 8.61023 6.36392 8.89396 6.35641 9.19165L6.29448 11.6547L8.73489 11.6555C9.00506 11.6555 9.26555 11.5616 9.47281 11.3921L9.55825 11.3148L14.3387 6.54199L11.4478 3.65533ZM14.715 2.28543C14.192 1.76386 13.3441 1.76386 12.8213 2.2852L12.317 2.78783L15.2078 5.67366L15.7124 5.17094C16.2043 4.68035 16.2332 3.90145 15.799 3.37628L15.7121 3.28091L14.715 2.28543Z" fill="#666C7C"/>
</svg>
