<svg width="16" height="14" viewBox="0 0 16 14" fill="none" xmlns="http://www.w3.org/2000/svg">
<path d="M11.394 0.25C12.5294 0.262788 13.6101 0.743452 14.3844 1.58008C15.1587 2.41671 15.559 3.53628 15.493 4.64423L15.492 9.32196C15.559 10.4637 15.1587 11.5833 14.3844 12.4199C13.6101 13.2565 12.5294 13.7372 11.3876 13.75H4.59214C2.21499 13.75 0.5 11.8289 0.5 9.35577V4.64423C0.5 2.17113 2.21499 0.25 4.59214 0.25H11.394ZM11.3813 1.39628H4.59214C2.87209 1.39628 1.63808 2.77866 1.63808 4.64423V9.35577C1.63808 11.2213 2.87209 12.6037 4.59214 12.6037H11.3813C12.2055 12.5945 12.9899 12.2456 13.5519 11.6383C14.114 11.031 14.4045 10.2183 14.3549 9.35577L14.3559 4.61042C14.4045 3.78165 14.114 2.969 13.5519 2.36172C12.9899 1.75444 12.2055 1.40554 11.3813 1.39628ZM12.518 4.47878C12.6966 4.70344 12.68 5.02196 12.4912 5.22663L12.4294 5.28441L9.34913 7.76772C8.60101 8.35505 7.56732 8.38441 6.78728 7.85315L6.6663 7.76461L3.56545 5.2859C3.31928 5.08912 3.27809 4.7286 3.47346 4.48064C3.65106 4.25523 3.96302 4.20046 4.20322 4.3402L4.27293 4.38799L7.36986 6.86359C7.71709 7.13619 8.1931 7.15716 8.5556 6.93011L8.64372 6.86818L11.7182 4.38947C11.9635 4.19166 12.3216 4.23165 12.518 4.47878Z" fill="#0E4BC8"/>
</svg>
