<svg width="18" height="18" viewBox="0 0 18 18" fill="none" xmlns="http://www.w3.org/2000/svg">
<path d="M17.0873 2.82612L17.0568 2.94359L13.1859 15.9765C12.8017 17.269 11.1165 17.5273 10.3554 16.461L10.2825 16.35L7.03602 10.9716L1.63974 7.65003C0.492679 6.94389 0.68058 5.23826 1.90524 4.77737L2.03115 4.73552L15.0783 0.939068C16.2577 0.597737 17.347 1.65473 17.0873 2.82612ZM15.4874 2.12753L15.4266 2.13954L2.37998 5.93585C2.1084 6.01468 2.04169 6.3636 2.23988 6.54416L2.29499 6.58553L7.39852 9.72657L11.7696 5.32703C11.9908 5.1044 12.3379 5.08307 12.5832 5.2638L12.6535 5.32408C12.8761 5.54523 12.8974 5.89238 12.7167 6.13766L12.6564 6.20796L8.27935 10.6132L11.3527 15.7041C11.499 15.9465 11.8413 15.9223 11.9623 15.6844L11.9877 15.6205L15.8587 2.58711C15.9337 2.33577 15.728 2.10169 15.4874 2.12753Z" fill="#4C5BD4"/>
</svg>
