<svg width="17" height="18" viewBox="0 0 17 18" fill="none" xmlns="http://www.w3.org/2000/svg">
<path d="M12.0767 0C14.9531 0 16.673 1.728 16.7 4.6188V13.3119C16.7 16.2432 14.9756 18 12.0767 18H5.1242C4.7534 18 4.4015 17.9712 4.0703 17.9145L3.8741 17.8776C1.7402 17.4339 0.5 15.7995 0.5 13.3119V4.6881C0.5 4.3875 0.518 4.0995 0.554 3.8241C0.8681 1.4076 2.5286 0 5.1242 0H12.0767ZM12.0686 1.3113H5.1242C2.9138 1.3113 1.7933 2.448 1.7933 4.6881V13.3119C1.7933 15.552 2.9138 16.6887 5.1242 16.6887H12.0686C14.2781 16.6887 15.3914 15.552 15.3914 13.3119V4.6881C15.3914 2.448 14.2781 1.3113 12.0686 1.3113ZM11.8337 12.159C12.1883 12.159 12.4754 12.4506 12.4754 12.8106C12.4754 13.1706 12.1883 13.4622 11.8337 13.4622H5.3438C4.9892 13.4622 4.7012 13.1706 4.7012 12.8106C4.7012 12.4506 4.9892 12.159 5.3438 12.159H11.8337ZM11.8337 8.3439C12.0812 8.3169 12.3233 8.4357 12.4556 8.649C12.5879 8.8641 12.5879 9.1359 12.4556 9.351C12.3233 9.5643 12.0812 9.6831 11.8337 9.6561H5.3438C5.0144 9.6183 4.7651 9.3366 4.7651 9C4.7651 8.6634 5.0144 8.3808 5.3438 8.3439H11.8337ZM7.8206 4.5378C8.15 4.5747 8.3993 4.8573 8.3993 5.1939C8.3993 5.5296 8.15 5.8122 7.8206 5.8491H5.3519C5.0216 5.8122 4.7723 5.5296 4.7723 5.1939C4.7723 4.8573 5.0216 4.5747 5.3519 4.5378H7.8206Z" fill="#4C5BD4"/>
</svg>
