<svg width="18" height="18" viewBox="0 0 18 18" fill="none" xmlns="http://www.w3.org/2000/svg">
<g clip-path="url(#clip0)">
<path d="M17.8117 8.54508L16.5266 7.25996L9.45483 0.188242C9.20381 -0.0627472 8.79683 -0.0627472 8.5458 0.188242L1.47405 7.25996L0.188288 8.54576C-0.0583689 8.80115 -0.0513248 9.20813 0.204071 9.45479C0.453214 9.69542 0.848174 9.69542 1.09732 9.45479L1.28502 9.26576V17.3571C1.28502 17.7122 1.57285 18 1.92792 18H16.0714C16.4265 18 16.7143 17.7122 16.7143 17.3571V9.26576L16.9026 9.45415C17.158 9.7008 17.565 9.69372 17.8117 9.43836C18.0523 9.18922 18.0523 8.79422 17.8117 8.54508ZM10.9283 16.7143H7.07102V11.5711H10.9283V16.7143ZM15.4285 16.7143H12.2141V10.9283C12.2141 10.5732 11.9263 10.2854 11.5712 10.2854H6.42813C6.07306 10.2854 5.78523 10.5732 5.78523 10.9283V16.7143H2.57082V7.98001L8.99964 1.55115L15.4285 7.98001V16.7143Z" fill="#444444"/>
</g>
<defs>
<clipPath id="clip0">
<rect width="18" height="18" fill="white"/>
</clipPath>
</defs>
</svg>
