<svg width="34" height="34" viewBox="0 0 34 34" fill="none" xmlns="http://www.w3.org/2000/svg">
<g filter="url(#filter0_d)">
<path d="M17 30C24.1797 30 30 24.1797 30 17C30 9.8203 24.1797 4 17 4C9.8203 4 4 9.8203 4 17C4 24.1797 9.8203 30 17 30Z" fill="black"/>
</g>
<path d="M17 30C24.1797 30 30 24.1797 30 17C30 9.8203 24.1797 4 17 4C9.8203 4 4 9.8203 4 17C4 24.1797 9.8203 30 17 30Z" fill="white"/>
<path fill-rule="evenodd" clip-rule="evenodd" d="M12.7733 13.1001C12.5935 13.1001 12.4473 13.2463 12.4473 13.4261V14.7271C12.4473 14.9069 12.5935 15.0531 12.7733 15.0531C12.953 15.0531 13.0993 14.9069 13.0993 14.7271V13.4261C13.0993 13.2463 12.953 13.1001 12.7733 13.1001Z" fill="#474747"/>
<path fill-rule="evenodd" clip-rule="evenodd" d="M16.0233 13.1001C15.8435 13.1001 15.6973 13.2463 15.6973 13.4261V14.7271C15.6973 14.9069 15.8435 15.0531 16.0233 15.0531C16.2031 15.0531 16.3493 14.9069 16.3493 14.7271V13.4261C16.3493 13.2463 16.2031 13.1001 16.0233 13.1001Z" fill="#474747"/>
<path fill-rule="evenodd" clip-rule="evenodd" d="M12.7733 17C12.5935 17 12.4473 17.1463 12.4473 17.326V18.627C12.4473 18.8068 12.5935 18.953 12.7733 18.953C12.953 18.953 13.0993 18.8068 13.0993 18.627V17.326C13.0993 17.1463 12.953 17 12.7733 17Z" fill="#474747"/>
<path fill-rule="evenodd" clip-rule="evenodd" d="M16.0233 17C15.8435 17 15.6973 17.1463 15.6973 17.326V18.627C15.6973 18.8068 15.8435 18.953 16.0233 18.953C16.2031 18.953 16.3493 18.8068 16.3493 18.627V17.326C16.3493 17.1463 16.2031 17 16.0233 17Z" fill="#474747"/>
<path fill-rule="evenodd" clip-rule="evenodd" d="M12.7733 20.8999C12.5935 20.8999 12.4473 21.0462 12.4473 21.2259V22.5269C12.4473 22.7067 12.5935 22.853 12.7733 22.853C12.953 22.853 13.0993 22.7067 13.0993 22.5269V21.2259C13.0993 21.0462 12.953 20.8999 12.7733 20.8999Z" fill="#474747"/>
<path fill-rule="evenodd" clip-rule="evenodd" d="M16.0233 20.8999C15.8435 20.8999 15.6973 21.0462 15.6973 21.2259V22.5269C15.6973 22.7067 15.8435 22.853 16.0233 22.853C16.2031 22.853 16.3493 22.7067 16.3493 22.5269V21.2259C16.3493 21.0462 16.2031 20.8999 16.0233 20.8999Z" fill="#474747"/>
<path fill-rule="evenodd" clip-rule="evenodd" d="M19.9237 18.9501C20.1034 18.9501 20.2497 18.8039 20.2497 18.6241V17.3231C20.2497 17.1433 20.1034 16.9971 19.9237 16.9971C19.7439 16.9971 19.5977 17.1433 19.5977 17.3231V18.6241C19.5977 18.8039 19.7439 18.9501 19.9237 18.9501Z" fill="#474747"/>
<path fill-rule="evenodd" clip-rule="evenodd" d="M21.8748 18.9501C22.0546 18.9501 22.2009 18.8039 22.2009 18.6241V17.3231C22.2009 17.1433 22.0546 16.9971 21.8748 16.9971C21.6951 16.9971 21.5488 17.1433 21.5488 17.3231V18.6241C21.5488 18.8039 21.6951 18.9501 21.8748 18.9501Z" fill="#474747"/>
<path fill-rule="evenodd" clip-rule="evenodd" d="M19.5977 22.524C19.5977 22.7038 19.7439 22.85 19.9237 22.85C20.1034 22.85 20.2497 22.7038 20.2497 22.524V21.223C20.2497 21.0432 20.1034 20.897 19.9237 20.897C19.7439 20.897 19.5977 21.0432 19.5977 21.223V22.524Z" fill="#474747"/>
<path fill-rule="evenodd" clip-rule="evenodd" d="M21.5488 22.524C21.5488 22.7038 21.6951 22.85 21.8748 22.85C22.0546 22.85 22.2009 22.7038 22.2009 22.524V21.223C22.2009 21.0432 22.0546 20.897 21.8748 20.897C21.6951 20.897 21.5488 21.0432 21.5488 21.223V22.524Z" fill="#474747"/>
<path fill-rule="evenodd" clip-rule="evenodd" d="M24.1472 24.151H24.4732C24.653 24.151 24.7992 24.2972 24.8023 24.477C24.8023 24.6568 24.656 24.803 24.4763 24.803H9.52524C9.34547 24.803 9.19922 24.6568 9.19922 24.477C9.19922 24.2972 9.34547 24.151 9.52524 24.151H10.5002V12.125C10.5002 11.9879 10.5855 11.866 10.7135 11.8203L17.8645 9.22129C17.9651 9.18473 18.0748 9.19997 18.1631 9.2609C18.2484 9.32184 18.3002 9.41934 18.3002 9.52598V24.151H23.4982V15.5893L19.1442 13.7246C18.9797 13.6545 18.9035 13.4625 18.9736 13.298C19.0437 13.1335 19.2356 13.0573 19.4002 13.1274L23.9491 15.0774C24.071 15.1292 24.1472 15.245 24.1472 15.376V24.151ZM17.6482 9.98911L11.1492 12.3535V24.151H17.6482V9.98911Z" fill="#474747"/>
<defs>
<filter id="filter0_d" x="0.386" y="0.386" width="33.228" height="33.228" filterUnits="userSpaceOnUse" color-interpolation-filters="sRGB">
<feFlood flood-opacity="0" result="BackgroundImageFix"/>
<feColorMatrix in="SourceAlpha" type="matrix" values="0 0 0 0 0 0 0 0 0 0 0 0 0 0 0 0 0 0 127 0"/>
<feOffset/>
<feGaussianBlur stdDeviation="1.807"/>
<feColorMatrix type="matrix" values="0 0 0 0 0 0 0 0 0 0 0 0 0 0 0 0 0 0 0.1 0"/>
<feBlend mode="normal" in2="BackgroundImageFix" result="effect1_dropShadow"/>
<feBlend mode="normal" in="SourceGraphic" in2="effect1_dropShadow" result="shape"/>
</filter>
</defs>
</svg>
