<svg width="34" height="34" viewBox="0 0 34 34" fill="none" xmlns="http://www.w3.org/2000/svg">
<g filter="url(#filter0_d)">
<path d="M17 30C24.1797 30 30 24.1797 30 17C30 9.8203 24.1797 4 17 4C9.8203 4 4 9.8203 4 17C4 24.1797 9.8203 30 17 30Z" fill="black"/>
</g>
<path d="M17 30C24.1797 30 30 24.1797 30 17C30 9.8203 24.1797 4 17 4C9.8203 4 4 9.8203 4 17C4 24.1797 9.8203 30 17 30Z" fill="white"/>
<path fill-rule="evenodd" clip-rule="evenodd" d="M20.8344 12.0406V12.6438C23.3969 12.6438 25 14.5938 25.0063 16.6625V21.7344C25.0063 21.9969 24.7937 22.2063 24.5344 22.2063H18.7688V24.5312C18.7688 24.7937 18.5562 25.0031 18.2969 25.0031H15.7094C15.4469 25.0031 15.2375 24.7906 15.2375 24.5312V22.2063H9.47188C9.20938 22.2063 9 21.9937 9 21.7344V16.6625C9 14.4469 10.8031 12.6438 13.0156 12.6438H19.8906V9.47188C19.8906 9.20938 20.1031 9 20.3625 9H24.2812C24.5437 9 24.7531 9.20938 24.7531 9.47188V11.5688C24.7531 11.8313 24.5406 12.0406 24.2812 12.0406H20.8344ZM23.8125 9.94063H20.8344V11.0969H23.8125V9.94063ZM9.94063 16.6625V21.2656H16.0969V16.6625C16.0969 14.9656 14.7156 13.5844 13.0188 13.5844C11.3219 13.5844 9.94063 14.9656 9.94063 16.6625ZM17.0375 16.6625V21.2656H24.0531V16.6625C24.0531 15.0719 22.825 13.5844 20.8281 13.5844V16.0438C21.4938 16.2469 21.9813 16.8656 21.9813 17.5969C21.9813 18.4906 21.2531 19.2188 20.3594 19.2188C19.4656 19.2188 18.7375 18.4906 18.7375 17.5969C18.7375 16.8656 19.225 16.2469 19.8906 16.0438V13.5844H15.6C16.4781 14.3219 17.0375 15.4281 17.0375 16.6625ZM20.3625 16.9156C20.7375 16.9156 21.0437 17.2219 21.0437 17.5969C21.0437 17.9719 20.7375 18.2781 20.3625 18.2781C19.9875 18.2781 19.6812 17.9719 19.6812 17.5969C19.6812 17.2219 19.9875 16.9156 20.3625 16.9156ZM17.825 24.0594H16.1781V22.2063H17.825V24.0594Z" fill="#474747"/>
<path fill-rule="evenodd" clip-rule="evenodd" d="M14.0535 16.3999H11.3723C11.1129 16.3999 10.9004 16.6093 10.9004 16.8718C10.9004 17.1312 11.1098 17.3437 11.3723 17.3437H14.0535C14.3129 17.3437 14.5254 17.1343 14.5254 16.8718C14.5223 16.6093 14.3129 16.3999 14.0535 16.3999Z" fill="#474747"/>
<defs>
<filter id="filter0_d" x="0.386" y="0.386" width="33.228" height="33.228" filterUnits="userSpaceOnUse" color-interpolation-filters="sRGB">
<feFlood flood-opacity="0" result="BackgroundImageFix"/>
<feColorMatrix in="SourceAlpha" type="matrix" values="0 0 0 0 0 0 0 0 0 0 0 0 0 0 0 0 0 0 127 0"/>
<feOffset/>
<feGaussianBlur stdDeviation="1.807"/>
<feColorMatrix type="matrix" values="0 0 0 0 0 0 0 0 0 0 0 0 0 0 0 0 0 0 0.1 0"/>
<feBlend mode="normal" in2="BackgroundImageFix" result="effect1_dropShadow"/>
<feBlend mode="normal" in="SourceGraphic" in2="effect1_dropShadow" result="shape"/>
</filter>
</defs>
</svg>
