<svg width="34" height="34" viewBox="0 0 34 34" fill="none" xmlns="http://www.w3.org/2000/svg">
<g filter="url(#filter0_d)">
<path d="M17 30C24.1797 30 30 24.1797 30 17C30 9.8203 24.1797 4 17 4C9.8203 4 4 9.8203 4 17C4 24.1797 9.8203 30 17 30Z" fill="black"/>
</g>
<path d="M17 30C24.1797 30 30 24.1797 30 17C30 9.8203 24.1797 4 17 4C9.8203 4 4 9.8203 4 17C4 24.1797 9.8203 30 17 30Z" fill="white"/>
<path fill-rule="evenodd" clip-rule="evenodd" d="M9.00626 16.9969C9.00626 12.5875 12.5781 9 16.9719 9C21.3781 9 25 12.5969 25 17C25 21.4062 21.3719 24.9969 16.9719 24.9969C15.5188 24.9969 14.1062 24.6031 12.8687 23.8594L9 25L10.1438 21.1313C9.39999 19.8938 9.00626 18.4688 9.00626 16.9969ZM13.1906 22.9531C14.3188 23.675 15.625 24.0562 16.9719 24.0562C20.8813 24.0562 24.0625 20.8906 24.0625 16.9969C24.0625 13.1031 20.8813 9.9375 16.9719 9.9375C13.0969 9.9375 9.94376 13.1031 9.94063 16.9937C9.94063 18.3594 10.3219 19.6781 11.0437 20.8062L11.1594 20.9875L10.3844 23.6125L13.0094 22.8375L13.1906 22.9531Z" fill="#474747"/>
<path fill-rule="evenodd" clip-rule="evenodd" d="M20.4096 17.4595L21.8971 18.947C22.0846 19.1345 22.194 19.3907 22.194 19.6563C22.194 19.922 22.0908 20.172 21.9033 20.3595L21.5315 20.7313C20.8627 21.397 19.4971 21.372 18.5658 21.1939C17.7502 21.0376 16.1877 20.5813 14.8502 19.2407C13.5127 17.9001 13.0533 16.3376 12.8971 15.5251C12.6502 14.2282 12.8252 13.0938 13.3596 12.5595L13.7315 12.1876C14.119 11.8001 14.7502 11.8001 15.1377 12.1876L16.6283 13.6782C17.0158 14.0657 17.0158 14.697 16.6283 15.0845L16.2565 15.4563C16.0283 15.6845 16.0283 16.0532 16.2565 16.2813L16.2627 16.2876L17.7471 17.8345C17.9752 18.0595 18.4033 18.0595 18.6315 17.8313L19.0033 17.4595C19.1908 17.272 19.4408 17.1688 19.7064 17.1688C19.9721 17.1688 20.2221 17.272 20.4096 17.4595ZM21.2377 19.6907C21.2471 19.6782 21.2533 19.6657 21.2533 19.6501C21.2533 19.6469 21.2537 19.6443 21.2537 19.6418C21.2536 19.6106 21.199 19.5795 19.744 18.1157C19.7221 18.0938 19.6846 18.0938 19.6627 18.1157L19.2908 18.4876C18.6971 19.0813 17.6721 19.0813 17.0783 18.4876L17.0721 18.4813L15.5877 16.9345C14.9971 16.3407 14.9971 15.3814 15.5908 14.7876L15.9627 14.4157C15.9721 14.4032 15.9783 14.3907 15.9783 14.3751C15.9783 14.3718 15.9787 14.3693 15.9787 14.3667C15.9784 14.336 15.922 14.3056 14.4721 12.847C14.4596 12.8376 14.4471 12.8313 14.4315 12.8313C14.3877 12.8313 14.4096 12.8376 14.019 13.2188C13.7627 13.4751 13.6096 14.2876 13.8127 15.347C13.9471 16.0564 14.344 17.4157 15.5065 18.5751C16.669 19.7345 18.0283 20.1345 18.7346 20.2688C19.794 20.4688 20.6065 20.3189 20.8627 20.0626L21.2377 19.6907Z" fill="#474747"/>
<defs>
<filter id="filter0_d" x="0.386" y="0.386" width="33.228" height="33.228" filterUnits="userSpaceOnUse" color-interpolation-filters="sRGB">
<feFlood flood-opacity="0" result="BackgroundImageFix"/>
<feColorMatrix in="SourceAlpha" type="matrix" values="0 0 0 0 0 0 0 0 0 0 0 0 0 0 0 0 0 0 127 0"/>
<feOffset/>
<feGaussianBlur stdDeviation="1.807"/>
<feColorMatrix type="matrix" values="0 0 0 0 0 0 0 0 0 0 0 0 0 0 0 0 0 0 0.1 0"/>
<feBlend mode="normal" in2="BackgroundImageFix" result="effect1_dropShadow"/>
<feBlend mode="normal" in="SourceGraphic" in2="effect1_dropShadow" result="shape"/>
</filter>
</defs>
</svg>
