<svg width="30" height="30" viewBox="0 0 30 30" fill="none" xmlns="http://www.w3.org/2000/svg">
<path fill-rule="evenodd" clip-rule="evenodd" d="M0 15C0 6.71484 6.71484 0 15 0C23.2852 0 30 6.71484 30 15C30 23.2852 23.2852 30 15 30C6.71484 30 0 23.2852 0 15ZM15 28.2422C22.3125 28.2422 28.2422 22.3125 28.2422 15C28.2422 7.6875 22.3125 1.75781 15 1.75781C7.6875 1.75781 1.75781 7.6875 1.75781 15C1.75781 22.3125 7.6875 28.2422 15 28.2422Z" fill="white"/>
<path fill-rule="evenodd" clip-rule="evenodd" d="M22.5586 8.74219C21.9258 9.12305 21.2227 9.38672 20.4785 9.53906C19.875 8.90039 19.0195 8.50195 18.082 8.50195C16.2656 8.50195 14.8008 9.97852 14.8008 11.7832C14.8008 12.041 14.8242 12.293 14.877 12.5332C12.1465 12.3984 9.73242 11.0918 8.10938 9.09961C7.82812 9.5918 7.6582 10.1543 7.6582 10.7578C7.6582 11.8945 8.24414 12.9023 9.11719 13.4883C8.58984 13.4766 8.07422 13.3242 7.63477 13.084V13.1191C7.63477 14.7129 8.77148 16.0371 10.2656 16.3418C9.99609 16.4121 9.70898 16.4473 9.4043 16.4473C9.19336 16.4473 8.98242 16.4355 8.7832 16.3887C9.21094 17.6895 10.418 18.6445 11.8477 18.6738C10.7285 19.5469 9.31055 20.0742 7.77539 20.0742C7.50586 20.0742 7.24805 20.0625 6.99023 20.0273C8.44336 20.9648 10.166 21.498 12.0234 21.498C18.0645 21.498 21.3633 16.4941 21.3633 12.1582C21.3633 12.0117 21.3574 11.8711 21.3516 11.7363C22.002 11.2734 22.5527 10.6992 22.998 10.0312C22.4004 10.2949 21.7676 10.4648 21.1055 10.5469C21.7969 10.1484 22.3125 9.50977 22.5586 8.74219Z" fill="white"/>
</svg>
