<svg width="15" height="16" viewBox="0 0 15 16" fill="none" xmlns="http://www.w3.org/2000/svg">
<path d="M5.625 10.2614C8.6751 10.2614 11.25 10.7633 11.25 12.7016C11.25 14.6399 8.65858 15.125 5.625 15.125C2.5749 15.125 0 14.6224 0 12.6848C0 10.7465 2.59067 10.2614 5.625 10.2614ZM12.7492 4.625C13.1214 4.625 13.4235 4.93208 13.4235 5.30871V6.1909H14.3258C14.6972 6.1909 15 6.49798 15 6.87461C15 7.25124 14.6972 7.55832 14.3258 7.55832H13.4235V8.44129C13.4235 8.81791 13.1214 9.125 12.7492 9.125C12.3778 9.125 12.075 8.81791 12.075 8.44129V7.55832H11.1742C10.8021 7.55832 10.5 7.25124 10.5 6.87461C10.5 6.49798 10.8021 6.1909 11.1742 6.1909H12.075V5.30871C12.075 4.93208 12.3778 4.625 12.7492 4.625ZM5.625 0.875C7.69093 0.875 9.34698 2.55247 9.34698 4.64513C9.34698 6.73779 7.69093 8.41526 5.625 8.41526C3.55907 8.41526 1.90303 6.73779 1.90303 4.64513C1.90303 2.55247 3.55907 0.875 5.625 0.875Z" fill="white"/>
</svg>
