<svg width="18" height="18" viewBox="0 0 18 18" fill="none" xmlns="http://www.w3.org/2000/svg">
<path d="M8.99991 1.5C13.1421 1.5 16.4999 4.85809 16.4999 9C16.4999 13.1419 13.1421 16.5 8.99991 16.5C4.85825 16.5 1.49991 13.1417 1.49991 9C1.49991 4.85834 4.85825 1.5 8.99991 1.5ZM8.99991 2.625C5.47957 2.625 2.62491 5.47966 2.62491 9C2.62491 12.5203 5.47957 15.375 8.99991 15.375C12.5207 15.375 15.3749 12.5206 15.3749 9C15.3749 5.47939 12.5207 2.625 8.99991 2.625ZM9.00373 11.2844C9.31439 11.2844 9.56623 11.5363 9.56623 11.8469C9.56623 12.1317 9.35462 12.367 9.08006 12.4043L8.99623 12.4094C8.68557 12.4094 8.43373 12.1576 8.43373 11.8469C8.43373 11.5622 8.64535 11.3268 8.91991 11.2896L9.00373 11.2844ZM8.99623 5.59057C9.28101 5.59057 9.51635 5.80219 9.5536 6.07675L9.55873 6.15307V9.46732C9.55873 9.77798 9.30689 10.0298 8.99623 10.0298C8.71146 10.0298 8.47612 9.81821 8.43887 9.54365L8.43373 9.46732V6.15307C8.43373 5.84241 8.68557 5.59057 8.99623 5.59057Z" fill="#444444"/>
</svg>
