<svg width="28" height="28" viewBox="0 0 28 28" fill="none" xmlns="http://www.w3.org/2000/svg">
<path d="M22.9918 27.5206C17.0033 28.1598 10.9967 28.1598 5.00818 27.5206C2.6203 27.2658 0.734222 25.3797 0.47937 22.9916C-0.15979 17.0031 -0.15979 10.9967 0.47937 5.00818C0.734222 2.6203 2.6203 0.734222 5.00818 0.47937C10.9967 -0.15979 17.0031 -0.15979 22.9916 0.47937C25.3797 0.734222 27.2658 2.6203 27.5206 5.00818C28.1598 10.9967 28.1598 17.0031 27.5206 22.9916C27.2658 25.3797 25.3799 27.2658 22.9918 27.5206Z" fill="url(#paint0_linear)"/>
<path d="M26.4951 6.02077C26.2691 3.90184 24.5955 2.2281 22.4764 2.00188C17.1623 1.43492 11.8324 1.43492 6.51833 2.00188C4.3994 2.2281 2.72566 3.90184 2.49944 6.02077C1.93248 11.3349 1.93248 16.6647 2.49944 21.9786C2.72566 24.0978 4.3994 25.7715 6.51833 25.9975C11.8324 26.5647 17.1623 26.5647 22.4762 25.9975C24.5953 25.7715 26.2691 24.0978 26.4951 21.9786C27.0622 16.6647 27.0622 11.3349 26.4951 6.02077Z" fill="url(#paint1_linear)"/>
<path d="M14.0005 4.15745C9.96523 4.15745 6.13331 3.79876 4.66966 7.55215C4.06509 9.10236 4.15289 11.1156 4.15289 13.9984C4.15289 16.5281 4.07176 18.9056 4.66966 20.4436C6.12997 24.1992 9.99301 23.8394 13.9983 23.8394C17.8625 23.8394 21.8466 24.2414 23.3281 20.4436C23.9338 18.8778 23.8448 16.8945 23.8448 13.9984C23.8448 10.154 24.0571 7.67208 22.1912 5.80871C20.3019 3.92092 17.7469 4.15745 13.9961 4.15745H14.0005ZM13.1181 5.93086C21.5355 5.91754 22.6068 4.98253 22.0156 17.9717C21.8055 22.5657 18.3048 22.0615 14.0016 22.0615C6.15553 22.0615 5.92993 21.8372 5.92993 13.994C5.92993 6.05968 6.55228 5.93531 13.1181 5.92864V5.93086ZM19.2572 7.56436C18.6048 7.56436 18.0758 8.09294 18.0758 8.74479C18.0758 9.39663 18.6048 9.92522 19.2572 9.92522C19.9096 9.92522 20.4386 9.39663 20.4386 8.74479C20.4386 8.09294 19.9096 7.56436 19.2572 7.56436ZM14.0005 8.94467C11.2077 8.94467 8.9439 11.2078 8.9439 13.9984C8.9439 16.789 11.2077 19.051 14.0005 19.051C16.7933 19.051 19.0561 16.789 19.0561 13.9984C19.0561 11.2078 16.7933 8.94467 14.0005 8.94467ZM14.0005 10.7181C18.3403 10.7181 18.3459 17.2787 14.0005 17.2787C9.66183 17.2787 9.65516 10.7181 14.0005 10.7181Z" fill="white"/>
<defs>
<linearGradient id="paint0_linear" x1="8.49918e-07" y1="-4.66667" x2="23.8519" y2="29.5556" gradientUnits="userSpaceOnUse">
<stop stop-color="#CC39A3"/>
<stop offset="0.0001" stop-color="#CC39A3"/>
<stop offset="0.614583" stop-color="#FF6240"/>
<stop offset="1" stop-color="#FFD654"/>
</linearGradient>
<linearGradient id="paint1_linear" x1="34.7409" y1="34.7406" x2="-1.55541" y2="-8.29646" gradientUnits="userSpaceOnUse">
<stop stop-color="#FFD654"/>
<stop offset="0.541667" stop-color="#FF563E"/>
<stop offset="1" stop-color="#CC39A2"/>
</linearGradient>
</defs>
</svg>
