<svg width="13" height="13" viewBox="0 0 13 13" fill="none" xmlns="http://www.w3.org/2000/svg">
<g clip-path="url(#clip0)">
<path d="M1.35416 5.6875C0.60775 5.6875 0 6.29525 0 7.04166V11.375C0 12.1214 0.60775 12.7292 1.35416 12.7292H2.97916C3.28413 12.7292 3.56469 12.6262 3.79166 12.4551V5.6875H1.35416Z" fill="white"/>
<path d="M13.0006 7.7189C13.0006 7.39337 12.8717 7.09003 12.648 6.86631C12.901 6.58953 13.0299 6.21847 12.9947 5.83228C12.9313 5.14381 12.3111 4.60431 11.582 4.60431H8.23614C8.40189 4.1011 8.6673 3.17865 8.6673 2.43765C8.6673 1.26278 7.66902 0.270996 7.0423 0.270996C6.47952 0.270996 6.07758 0.587871 6.06027 0.600871C5.99636 0.652338 5.95898 0.730338 5.95898 0.812654V2.64944L4.39898 6.0289L4.33398 6.06194V11.8675C4.77489 12.0755 5.3328 12.1877 5.68814 12.1877H10.6601C11.25 12.1877 11.7662 11.7901 11.8875 11.2414C11.9498 10.9592 11.9135 10.6748 11.7895 10.4278C12.1898 10.2263 12.459 9.81406 12.459 9.34391C12.459 9.15215 12.4151 8.96853 12.3317 8.80225C12.732 8.60075 13.0006 8.18853 13.0006 7.7189Z" fill="white"/>
</g>
<defs>
<clipPath id="clip0">
<rect width="13" height="13" fill="white"/>
</clipPath>
</defs>
</svg>
