<svg width="16" height="18" viewBox="0 0 16 18" fill="none" xmlns="http://www.w3.org/2000/svg">
    <path d="M8.86074 17.9495C12.4715 17.5451 15.3653 14.6586 15.7771 11.0479C16.3176 6.32662 12.648 2.30769 8.04813 2.25621V0.138273C8.04813 0.0206101 7.90105 -0.0418984 7.80177 0.0316411L3.44088 3.23428C3.36734 3.28944 3.36734 3.39607 3.44088 3.45123L7.80177 6.65387C7.90105 6.72741 8.04813 6.66122 8.04813 6.54724V4.43298C11.2802 4.48446 13.8688 7.23483 13.6482 10.522C13.4606 13.3496 11.1552 15.6441 8.32758 15.8242C5.33084 16.0154 2.7827 13.8754 2.32676 11.0442C2.24219 10.5184 1.78256 10.136 1.25308 10.136C0.594901 10.136 0.0801246 10.7206 0.18308 11.3714C0.822873 15.4051 4.54765 18.4312 8.86074 17.9495Z" fill="white"/>
</svg>
