<svg width="18" height="18" viewBox="0 0 18 18" fill="none" xmlns="http://www.w3.org/2000/svg">
<path d="M9.0216 1.50004L9.21297 1.50356C12.6449 1.61679 15.3866 4.44898 15.375 7.91452L15.3748 7.99127C15.3358 10.0585 14.3015 12.0939 12.5854 13.9105C11.7388 14.7923 10.7934 15.573 9.76803 16.237L9.7755 16.2315L9.73936 16.2621C9.32947 16.5566 8.7863 16.5777 8.35738 16.3252L8.26053 16.2621L8.21529 16.2266L7.9052 16.0179C6.61734 15.13 5.47035 14.0529 4.50519 12.8257L4.26771 12.5158C3.25655 11.1906 2.68246 9.58209 2.625 7.89473L2.62847 7.68105C2.74132 4.23855 5.56483 1.48833 9.0216 1.50004ZM9.01775 2.63814L8.83759 2.64057C6.02649 2.72627 3.76919 5.0342 3.75957 7.87494L3.77388 8.1427C3.87132 9.47808 4.35539 10.7582 5.17227 11.8288C6.18643 13.1873 7.43098 14.3562 8.849 15.282L8.91066 15.3286C8.96193 15.3731 9.03797 15.3731 9.08923 15.3286L9.15267 15.2809C10.1046 14.6645 10.9822 13.9397 11.765 13.1244C13.3001 11.4994 14.2075 9.71361 14.2404 7.9805L14.2379 7.73187C14.1525 4.9121 11.8516 2.64782 9.01775 2.63814ZM8.99995 5.55097C10.3412 5.55097 11.4286 6.64166 11.4286 7.98709C11.4286 9.33253 10.3412 10.4232 8.99995 10.4232C7.65865 10.4232 6.57132 9.33253 6.57132 7.98709C6.57132 6.64166 7.65865 5.55097 8.99995 5.55097ZM8.99995 6.68904C8.28526 6.68904 7.70588 7.2702 7.70588 7.98709C7.70588 8.70399 8.28526 9.28515 8.99995 9.28515C9.71464 9.28515 10.294 8.70399 10.294 7.98709C10.294 7.2702 9.71464 6.68904 8.99995 6.68904Z" fill="#0E4BC8"/>
</svg>
