<svg width="20" height="20" viewBox="0 0 20 20" fill="none" xmlns="http://www.w3.org/2000/svg">
<path d="M9.44305 1.68457C11.4257 1.68457 13.044 3.24618 13.1349 5.20643L13.1389 5.3804V6.1579C13.1389 6.50308 12.8591 6.7829 12.5139 6.7829C12.1975 6.7829 11.936 6.54778 11.8946 6.24271L11.8889 6.1579V5.3804C11.8889 4.07799 10.8705 3.01312 9.58675 2.93872L9.44305 2.93457H5.38055C4.07883 2.93457 3.01409 3.95301 2.9397 5.23672L2.93555 5.3804V14.6554C2.93555 15.9577 3.9538 17.0227 5.23693 17.0971L5.38055 17.1012H9.45138C10.7492 17.1012 11.8106 16.0866 11.8847 14.8077L11.8889 14.6646V13.8787C11.8889 13.5336 12.1687 13.2537 12.5139 13.2537C12.8303 13.2537 13.0918 13.4889 13.1332 13.7939L13.1389 13.8787V14.6646C13.1389 16.6406 11.5832 18.2538 9.63001 18.347L9.45138 18.3512H5.38055C3.39851 18.3512 1.78041 16.7895 1.68957 14.8294L1.68555 14.6554V5.3804C1.68555 3.39786 3.24701 1.77946 5.20664 1.68859L5.38055 1.68457H9.44305ZM16.1056 7.08529L16.1758 7.14565L18.6158 9.57481C18.6378 9.59661 18.6571 9.6188 18.6748 9.64227L18.6158 9.57481C18.6413 9.60016 18.6641 9.62715 18.6843 9.65544C18.6985 9.67524 18.7117 9.69615 18.7236 9.71785C18.7257 9.72207 18.7279 9.72621 18.7301 9.73037C18.7406 9.75035 18.75 9.77108 18.7582 9.79237C18.7616 9.80169 18.765 9.81112 18.7681 9.82061C18.7742 9.83813 18.7793 9.85616 18.7836 9.87451C18.7856 9.88432 18.7877 9.89405 18.7895 9.90381C18.7929 9.92085 18.7954 9.93842 18.7971 9.95621C18.7981 9.96859 18.7989 9.98085 18.7994 9.99311C18.8 10.0013 18.8001 10.0096 18.8001 10.0178L18.7994 10.0414C18.799 10.0542 18.7981 10.0671 18.7968 10.0798L18.8001 10.0178C18.8001 10.0569 18.7966 10.0951 18.7897 10.1321C18.7877 10.1414 18.7856 10.1511 18.7834 10.1609C18.7792 10.1802 18.7738 10.1989 18.7676 10.2172C18.7645 10.2258 18.7614 10.2344 18.7581 10.2429C18.7503 10.2637 18.7413 10.2838 18.7313 10.3032C18.7288 10.3076 18.7262 10.3126 18.7235 10.3175C18.6948 10.3702 18.6589 10.4179 18.6171 10.4598L18.6159 10.4606L16.1759 12.8906C15.9313 13.1342 15.5356 13.1333 15.292 12.8888C15.0706 12.6664 15.0511 12.3192 15.2332 12.0749L15.2938 12.0049L16.6597 10.6421L8.14096 10.6428C7.79579 10.6428 7.51596 10.363 7.51596 10.0178C7.51596 9.70141 7.75109 9.43991 8.05616 9.39853L8.14096 9.39282L16.6614 9.39207L15.2939 8.03149C15.0715 7.8101 15.0506 7.46293 15.2316 7.21785L15.292 7.14761C15.5134 6.92523 15.8605 6.90429 16.1056 7.08529Z" fill="#666C7C"/>
</svg>
