<svg width="18" height="18" viewBox="0 0 18 18" fill="none" xmlns="http://www.w3.org/2000/svg">
<path d="M7.37255 11.1157C8.45538 11.0201 9.54446 11.0201 10.6273 11.1157L10.973 11.1449C11.4459 11.1915 11.9155 11.2645 12.3775 11.3632C13.5553 11.6058 14.4105 12.0362 14.7891 12.8346C15.0703 13.4285 15.0703 14.1181 14.789 14.7123C14.4094 15.5127 13.5432 15.9467 12.3863 16.1749L12.0358 16.2477C11.5673 16.3376 11.0949 16.399 10.6256 16.4311C9.74508 16.506 8.8604 16.5197 8.00702 16.4728C7.91295 16.4728 7.84981 16.4724 7.79418 16.4712L7.68599 16.4671C7.55445 16.4604 7.43393 16.4466 7.38336 16.4318C6.78965 16.3914 6.19988 16.3055 5.63411 16.1778L5.4422 16.1378C4.37087 15.8998 3.57747 15.4703 3.21048 14.7115C3.07149 14.417 2.9996 14.0951 3.00001 13.772C2.99881 13.4466 3.07129 13.1251 3.21544 12.8249C3.59765 12.0572 4.49565 11.5953 5.61811 11.3641C6.19967 11.2394 6.78926 11.1562 7.37255 11.1157ZM10.5327 12.1973C9.51281 12.1073 8.48704 12.1073 7.45722 12.198C6.91473 12.2358 6.37556 12.3119 5.83956 12.4268C5.00941 12.5978 4.37471 12.9243 4.1859 13.3034C4.11638 13.4483 4.08056 13.6071 4.08115 13.7707C4.08095 13.9352 4.11725 14.0977 4.18519 14.2417C4.37938 14.6432 4.9783 14.9433 5.85583 15.1153L6.12022 15.1713C6.56301 15.259 7.01906 15.3196 7.52587 15.3578C7.58987 15.3707 7.65894 15.3786 7.74089 15.3828L8.03609 15.3878C8.86872 15.4328 9.70346 15.4199 10.5432 15.3485C11.0844 15.3114 11.622 15.2334 12.1646 15.1123L12.3334 15.0766C13.104 14.9018 13.6372 14.6159 13.8127 14.2458C13.9543 13.9468 13.9543 13.5998 13.8128 13.3011C13.625 12.905 13.0313 12.6062 12.1565 12.426C11.6243 12.3124 11.0849 12.2362 10.5422 12.198L10.5327 12.1973ZM9.00322 1.5C11.2037 1.5 12.9876 3.29148 12.9876 5.50138C12.9876 7.71128 11.2037 9.50276 9.00322 9.50276C6.8027 9.50276 5.01883 7.71128 5.01883 5.50138C5.01883 3.29148 6.8027 1.5 9.00322 1.5ZM9.00322 2.58575C7.3998 2.58575 6.09997 3.89112 6.09997 5.50138C6.09997 7.11164 7.3998 8.41701 9.00322 8.41701C10.6066 8.41701 11.9065 7.11164 11.9065 5.50138C11.9065 3.89112 10.6066 2.58575 9.00322 2.58575Z" fill="#0E4BC8"/>
</svg>
