<svg width="19" height="19" viewBox="0 0 19 19" fill="none" xmlns="http://www.w3.org/2000/svg">
<path d="M5.1221 1.58486L5.14318 1.58622C5.55793 1.6206 5.91815 1.82671 6.24698 2.14799C6.87188 2.75832 8.21374 4.53932 8.31505 5.024C8.42717 5.56472 8.30729 5.91591 7.94991 6.53715L7.86329 6.69025C7.6993 6.98978 7.67423 7.11345 7.725 7.25507C8.5053 9.16475 9.83683 10.4961 11.7247 11.2671C11.9035 11.3319 12.0385 11.2948 12.4163 11.078L12.6135 10.9665C13.1446 10.6752 13.4813 10.5831 13.9777 10.6865C14.4608 10.7877 16.2428 12.1304 16.8522 12.7545C17.173 13.083 17.3796 13.4439 17.4155 13.886C17.4535 14.9604 16.1424 16.4733 15.3426 16.9282C14.4331 17.5788 13.2789 17.568 11.9847 16.9657C8.60041 15.5574 3.42363 10.4137 2.04406 7.03358L1.96148 6.84451C1.43764 5.59249 1.44899 4.51081 2.04929 3.69533C2.59704 2.78823 4.07387 1.53638 5.1221 1.58486ZM5.05605 2.7417L4.98833 2.74605C4.45032 2.81753 3.3714 3.74639 3.0121 4.33718L2.95003 4.42955C2.6405 4.93387 2.67638 5.62644 3.10732 6.57472L3.18967 6.7675C4.57946 9.88667 9.39147 14.6319 12.4513 15.9057L12.6198 15.9806C13.5051 16.3559 14.1753 16.3392 14.7178 15.9545L14.7579 15.9287C14.9258 15.812 15.313 15.4602 15.6112 15.1161C16.0301 14.6328 16.2673 14.19 16.2596 13.9542C16.2513 13.8534 16.1735 13.7174 16.0236 13.564C15.5706 13.1 13.923 11.8586 13.7409 11.8205C13.5688 11.7846 13.4274 11.8328 13.041 12.0551L12.8465 12.1643C12.2772 12.4714 11.8758 12.5539 11.3087 12.348C9.11105 11.451 7.55085 9.89107 6.64436 7.67127C6.42964 7.07775 6.54522 6.65782 6.91861 6.00704L7.00758 5.85052C7.1772 5.54425 7.2131 5.4143 7.18114 5.26016C7.14287 5.07707 5.90226 3.43046 5.4377 2.97674C5.28386 2.82643 5.14869 2.74909 5.04753 2.74071L5.05605 2.7417Z" fill="#0E4BC8"/>
</svg>
