<svg width="18" height="18" viewBox="0 0 18 18" fill="none" xmlns="http://www.w3.org/2000/svg">
<path d="M16.2784 3.44341L16.251 3.54914L12.7671 15.2788C12.4213 16.442 10.9046 16.6744 10.2197 15.7148L10.1541 15.6149L7.23223 10.7743L2.37558 7.78493C1.34323 7.1494 1.51234 5.61434 2.61453 5.19954L2.72785 5.16187L14.4703 1.74506C15.5317 1.43787 16.5121 2.38916 16.2784 3.44341ZM14.8385 2.81468L14.7838 2.82549L3.0418 6.24217C2.79738 6.31311 2.73734 6.62715 2.91571 6.78964L2.9653 6.82688L7.55848 9.65382L11.4925 5.69423C11.6915 5.49386 12.0039 5.47467 12.2247 5.63732L12.288 5.69158C12.4883 5.89061 12.5075 6.20305 12.3449 6.4238L12.2906 6.48707L8.35123 10.4518L11.1172 15.0336C11.2489 15.2517 11.557 15.23 11.6659 15.0158L11.6887 14.9583L15.1727 3.22831C15.2401 3.0021 15.0551 2.79142 14.8385 2.81468Z" fill="#200E32"/>
</svg>
