<svg width="20" height="20" viewBox="0 0 20 20" fill="none" xmlns="http://www.w3.org/2000/svg">
    <path d="M10.5131 1.66699C11.1039 1.66675 11.6697 1.90084 12.0816 2.31592C12.4934 2.731 12.7162 3.29173 12.6983 3.81504L12.7054 3.93812C12.7197 4.05932 12.76 4.17629 12.8253 4.28411C12.9526 4.49672 13.1609 4.651 13.4044 4.71294C13.6479 4.77488 13.9065 4.73939 14.1515 4.59898L14.288 4.52991C15.313 4.0578 16.5423 4.43298 17.1108 5.39972L17.6218 6.26844C17.6352 6.29134 17.6471 6.31501 17.6573 6.33928L17.7048 6.43234C18.1618 7.38798 17.8366 8.52471 16.9684 9.10223L16.754 9.23423C16.6419 9.31079 16.5484 9.41081 16.4781 9.53098C16.3512 9.74442 16.3164 9.99862 16.3813 10.2373C16.4463 10.476 16.6057 10.6794 16.8475 10.8164L16.9866 10.9037C17.4069 11.1918 17.7105 11.6163 17.8429 12.1028C17.9923 12.6518 17.9122 13.2364 17.6163 13.734L17.0666 14.6312L16.9837 14.7577C16.3379 15.6676 15.0839 15.9456 14.1269 15.4045L14.0135 15.3472C13.8952 15.2954 13.7675 15.2669 13.6513 15.2637C13.3985 15.2625 13.1557 15.3604 12.9769 15.5355C12.7982 15.7107 12.6983 15.9485 12.6989 16.2252L12.6922 16.3682C12.5996 17.4756 11.6534 18.3337 10.5133 18.3337H9.48389C8.2765 18.3337 7.29772 17.3747 7.29894 16.2298L7.29187 16.1067C7.27749 15.9855 7.23721 15.8685 7.16859 15.7551C7.04414 15.542 6.83794 15.3864 6.59582 15.3229C6.35371 15.2594 6.09575 15.2933 5.84605 15.4348L5.69769 15.5073C5.22851 15.7141 4.69928 15.7523 4.20338 15.6142C3.64389 15.4584 3.17084 15.0906 2.89478 14.6023L2.36367 13.7038L2.29298 13.5707C1.80932 12.5704 2.18844 11.368 3.15063 10.8232L3.23838 10.7694C3.49543 10.5951 3.64956 10.3077 3.64956 10.0003C3.64956 9.66612 3.46758 9.35731 3.14924 9.17658L3.02008 9.09539C2.09135 8.46263 1.80758 7.23406 2.38292 6.25612L2.92399 5.38504C3.52574 4.36179 4.8593 4.0088 5.88497 4.58509L5.996 4.64307C6.10919 4.69397 6.23213 4.72099 6.35052 4.72223C6.87252 4.72228 7.2978 4.31159 7.30571 3.78517L7.3128 3.6235C7.35554 3.12296 7.57723 2.65258 7.93964 2.2958C8.34852 1.89328 8.90426 1.66699 9.48389 1.66699H10.5131ZM10.5133 2.87344H9.48389C9.23186 2.87344 8.99023 2.97183 8.81245 3.14684C8.65488 3.30196 8.55849 3.5065 8.54158 3.6975L8.53038 3.95158C8.44417 5.05939 7.49942 5.92879 6.34406 5.92864C6.04624 5.92561 5.75264 5.8611 5.45323 5.72554L5.29292 5.6427C4.83617 5.38629 4.25376 5.54045 3.98349 5.9997L3.44241 6.87079C3.19448 7.29236 3.31848 7.82921 3.70237 8.09136L3.91963 8.22616C4.51798 8.62254 4.88096 9.28611 4.88096 10.0003C4.88096 10.7041 4.52811 11.362 3.91817 11.775L3.78833 11.855C3.36096 12.0972 3.19603 12.6203 3.39466 13.0323L3.44157 13.1211L3.96594 14.0073C4.08908 14.225 4.29568 14.3857 4.54003 14.4537C4.7566 14.514 4.98775 14.4973 5.16808 14.4185L5.25867 14.375C5.7588 14.0891 6.35479 14.0108 6.91415 14.1575C7.47352 14.3041 7.94991 14.6636 8.23248 15.1477C8.3845 15.3986 8.48069 15.678 8.51792 15.999L8.53472 16.2937C8.58655 16.7624 8.99174 17.1272 9.48389 17.1272H10.5133C11.0111 17.1272 11.4246 16.7523 11.4634 16.2929L11.4681 16.202C11.4653 15.6324 11.6951 15.0852 12.1062 14.6824C12.5174 14.2796 13.0758 14.0545 13.6708 14.0575C13.9627 14.0651 14.25 14.1292 14.5437 14.2587L14.807 14.3905C15.2202 14.5682 15.7105 14.4385 15.9589 14.0892L16.0193 13.9967L16.5563 13.12C16.6832 12.9066 16.7181 12.6524 16.6531 12.4137C16.5955 12.2021 16.4635 12.0175 16.3034 11.9071L16.0765 11.7666C15.6427 11.4793 15.3274 11.0472 15.1915 10.5482C15.0421 9.99921 15.1222 9.41455 15.4119 8.92751C15.5704 8.65629 15.7883 8.4231 16.0724 8.22976L16.2064 8.1471C16.6331 7.90258 16.7979 7.37953 16.6007 6.96602L16.5417 6.85474L16.5312 6.83137L16.0439 6.00206C15.8134 5.61012 15.3337 5.44077 14.9267 5.57457L14.8342 5.61087L14.7483 5.65378C14.2498 5.9415 13.6549 6.02313 13.0949 5.88067C12.5349 5.73821 12.0558 5.38337 11.7648 4.89713C11.6127 4.64619 11.5165 4.36686 11.4793 4.04578L11.4684 3.83573C11.4758 3.58302 11.3785 3.33813 11.1986 3.15685C11.0187 2.97557 10.7716 2.87344 10.5133 2.87344ZM10.0024 7.27684C11.5376 7.27684 12.7822 8.49619 12.7822 10.0003C12.7822 11.5045 11.5376 12.7238 10.0024 12.7238C8.46713 12.7238 7.22258 11.5045 7.22258 10.0003C7.22258 8.49619 8.46713 7.27684 10.0024 7.27684ZM10.0024 8.48329C9.14722 8.48329 8.45397 9.16249 8.45397 10.0003C8.45397 10.8382 9.14722 11.5174 10.0024 11.5174C10.8575 11.5174 11.5508 10.8382 11.5508 10.0003C11.5508 9.16249 10.8575 8.48329 10.0024 8.48329Z" fill="#666C7C"/>
</svg>
