<svg width="24" height="24" viewBox="0 0 24 24" fill="none" xmlns="http://www.w3.org/2000/svg">
<path d="M12 0C18.6172 0 24 5.3828 24 12C24 18.6172 18.6172 24 12 24C5.3828 24 0 18.6163 0 12C0 5.38373 5.3828 0 12 0ZM12 22.141C17.591 22.141 22.141 17.592 22.141 12C22.141 6.40805 17.591 1.85902 12 1.85902C6.40899 1.85902 1.85902 6.40805 1.85902 12C1.85902 17.592 6.40805 22.141 12 22.141Z" fill="#444444"/>
<path d="M7.35151 10.9869H11.0695V7.26889C11.0695 6.75579 11.485 6.33936 11.9991 6.33936C12.5131 6.33936 12.9286 6.75579 12.9286 7.26889V10.9869H16.6466C17.1607 10.9869 17.5762 11.4034 17.5762 11.9164C17.5762 12.4295 17.1607 12.846 16.6466 12.846H12.9286V16.564C12.9286 17.0771 12.5131 17.4935 11.9991 17.4935C11.485 17.4935 11.0695 17.0771 11.0695 16.564V12.846H7.35151C6.83748 12.846 6.42198 12.4295 6.42198 11.9164C6.42198 11.4034 6.83748 10.9869 7.35151 10.9869Z" fill="#444444"/>
</svg>
