<svg width="20" height="20" viewBox="0 0 20 20" fill="none" xmlns="http://www.w3.org/2000/svg">
<path d="M17.7042 12.2727C18.0483 12.2727 18.3275 12.5519 18.3275 12.8961C18.3275 12.9063 18.2912 13.3653 18.2544 13.849L18.2326 14.1388C18.2112 14.4248 18.1922 14.6891 18.1833 14.8402C18.1358 15.6219 17.8325 16.4194 17.3717 16.9744C16.73 17.7477 15.9125 18.1094 14.8008 18.1119C14.7817 18.1119 14.7604 18.112 14.7369 18.112L13.6448 18.1128C13.5895 18.1128 13.5329 18.1128 13.475 18.1129H6.56709C6.50915 18.1128 6.45253 18.1128 6.3973 18.1128L5.30546 18.112L5.24166 18.1119C4.12916 18.1094 3.31166 17.7477 2.66999 16.9736C2.20999 16.4194 1.90583 15.6219 1.85916 14.8402C1.84999 14.6891 1.83083 14.4248 1.80934 14.1388L1.78738 13.849C1.75042 13.3653 1.71416 12.9063 1.71416 12.8961C1.71416 12.5519 1.99333 12.2727 2.33749 12.2727C2.66499 12.2727 2.92583 12.5277 2.95083 12.8477C2.95083 12.8477 3.07916 14.3052 3.10666 14.7652C3.13749 15.2744 3.34416 15.8286 3.63249 16.1752C4.04083 16.6677 4.49249 16.8602 5.24333 16.8619C5.26845 16.8619 5.29741 16.862 5.33004 16.862L6.71932 16.8628C6.79847 16.8628 6.87977 16.8628 6.96304 16.8628H13.0781C13.1614 16.8628 13.2427 16.8628 13.3219 16.8628L14.7116 16.862L14.7983 16.8619C15.55 16.8602 16.0017 16.6677 16.4092 16.1761C16.6983 15.8286 16.905 15.2744 16.9358 14.7652C16.9625 14.3052 17.0908 12.8477 17.0908 12.8477C17.1158 12.5277 17.3767 12.2727 17.7042 12.2727ZM9.99624 12.1954C10.3412 12.1954 10.6212 12.4754 10.6212 12.8204V13.8987C10.6212 14.2437 10.3412 14.5237 9.99624 14.5237C9.65124 14.5237 9.37124 14.2437 9.37124 13.8987V12.8204C9.37124 12.4754 9.65124 12.1954 9.99624 12.1954ZM11.072 1.66699C12.3237 1.66699 13.3495 2.60866 13.5053 3.81783H15.1528C16.902 3.81783 18.3253 5.24116 18.3253 6.99116V9.88033C18.3253 10.0903 18.2203 10.2853 18.0453 10.402C16.327 11.5387 14.2878 12.2962 12.147 12.5928C12.1187 12.597 12.0895 12.5987 12.0612 12.5987C11.7787 12.5987 11.527 12.407 11.4553 12.127C11.287 11.4637 10.6853 11.0003 9.99199 11.0003C9.29116 11.0003 8.69533 11.4537 8.50949 12.1303C8.42616 12.4337 8.13699 12.6287 7.82033 12.5845C5.69449 12.2878 3.66366 11.5337 1.94783 10.402C1.77199 10.2862 1.66699 10.0903 1.66699 9.88033V6.99116C1.66699 5.24116 3.09366 3.81783 4.84783 3.81783H6.48699C6.64366 2.60783 7.66866 1.66699 8.92033 1.66699H11.072ZM15.1528 5.06783H4.84783C3.78366 5.06783 2.91699 5.93116 2.91699 6.99116V9.53866C4.28533 10.3862 5.85783 10.9795 7.50949 11.2703C7.97949 10.3528 8.93366 9.75033 9.99199 9.75033C11.0595 9.75033 12.0095 10.3553 12.4662 11.2778C14.1278 10.9853 15.7062 10.3895 17.0753 9.53866V6.99116C17.0753 5.93116 16.2128 5.06783 15.1528 5.06783ZM11.072 2.91699H8.92033C8.35949 2.91699 7.89116 3.30116 7.75116 3.81783H12.2403C12.1012 3.30116 11.632 2.91699 11.072 2.91699Z" fill="#666C7C"/>
</svg>
